<?xml version="1.0" encoding="utf-8"?>
<!-- Generator: Adobe Illustrator 23.0.3, SVG Export Plug-In . SVG Version: 6.00 Build 0)  -->
<svg version="1.1" id="Layer_1" xmlns="http://www.w3.org/2000/svg" xmlns:xlink="http://www.w3.org/1999/xlink" x="0px" y="0px"
	 viewBox="0 0 611.5 186" style="enable-background:new 0 0 611.5 186;" xml:space="preserve">
<style type="text/css">
	.st0{fill:#C52727;}
</style>
<path class="st0" d="M572.1,0.6c-0.3,2.6-1.9,3-4.3,3c-163.8-0.1-327.7,0-491.5,0c-24.2,0-48.4,0-72.6,0c-2,0-3.3-0.2-2.8-2.8
	C13.1,0.6,25,0.6,36.9,0.6c0.9,0,1.8-0.4,2.7-0.6c0.3,0,0.5,0,0.9,0.2c0.9,0.7,1.6,1.4,2.4,1.5c8.9,0.1,17.8,0.1,26.8,0
	c0.8,0,1.6-1.1,2.4-1.7c0.3,0,0.5,0,1.1,0.2c1.6,0.3,2.9,0.4,4.1,0.4c163.7,0,327.5,0,491.2,0C569.7,0.6,570.9,0.6,572.1,0.6z"/>
<path class="st0" d="M611.5,124.9c-30.4,0.2-60.8,0.2-91.1,0.2c-10,0-20,0-30.6,0c2.2-2.2,3.9-3.7,7-3.6c7.5,0.2,14.9,0.1,22.4,0.1
	c0.8,0,1.8-0.2,2.3,0.2c4.7,3.6,9.4,1.8,14.1,0.2c0.7-0.2,1.5-0.4,2.3-0.4c23.8,0,47.6,0,71.4,0c0.6,0,1.2,0.1,2,0.1
	C611.5,122.6,611.5,123.6,611.5,124.9z"/>
<path class="st0" d="M572.2,0.6c-1.3,0-2.5,0-3.7,0c-163.7,0-327.5,0-491.2,0c-1.3,0-2.5-0.1-3.9-0.4C239.5,0,405.8,0,572.3,0
	C572.5,0.2,572.4,0.4,572.2,0.6z"/>
<path class="st0" d="M608.5,0.6c0.5,0.8,1,1.6,1.8,2.8c-10.5,0-20.7,0-31.1,0c0.2-0.9,0.5-1.9,0.6-3.1c0.2-0.2,0.4-0.2,1.1-0.1
	C590.3,0.4,599.4,0.5,608.5,0.6z"/>
<path class="st0" d="M71.8,0c-0.5,0.6-1.3,1.7-2.2,1.7c-8.9,0.1-17.8,0.1-26.8,0c-0.8,0-1.5-0.8-2.2-1.5C51.1,0,61.3,0,71.8,0z"/>
<path class="st0" d="M39.4,0c-0.6,0.2-1.5,0.6-2.5,0.6c-11.9,0-23.8,0-36,0C0.5,0.5,0.5,0.3,0.6,0.1C13.5,0,26.3,0,39.4,0z"/>
<path class="st0" d="M608.5,0.5c-9.1,0.1-18.2,0-27.5-0.3c8.9-0.2,18-0.2,27.3-0.2C608.5,0.1,608.5,0.2,608.5,0.5z"/>
<path class="st0" d="M259.3,43.7c-8.3,21.5-16.5,42.8-25,64.7c-3.3-4.6-7.7-7.4-9.9-12.6c-8.2-19.9-16.8-39.7-25.3-59.6
	c-0.3-0.7-0.6-1.4-1.3-2.9c-0.6,4.1-1.2,7.5-1.6,10.8c-2.2,16.1-4.3,32.1-6.5,48.2c-0.7,5.1-1.2,10.1,4.4,13.7c-7,0-13.3,0-19.6,0
	c-0.1-0.2-0.2-0.4-0.1-0.5c5.5-6.7,6.3-14.9,7.5-22.9c2.3-16.2,4.4-32.5,6.4-48.8c0.4-2.9,0.5-5.9,0-8.8c-0.3-1.7-1.9-3.2-2.8-4.8
	c6.6,0,13.3,0,20.1,0.1c0.7,0,1.6,0.9,1.9,1.6c0.9,2,1.5,4,2.3,6.1c1.1,2.8,2.6,5.6-0.4,8.6c3.9-1.2,4.6,1.3,5.7,3.8
	c5.9,14,11.9,27.9,18.3,42.7c8.3-21.3,16.3-42,24.5-63.1c6.3,0,13.3,0,20.9,0c-6.1,6.8-2.3,14.2-1.5,21.1c2.1,17.8,5,35.6,7.5,53.4
	c0.6,4.1,1.3,8.1,4.9,11.1c-7.8,0-15.2,0-22.6,0c6.5-5.1,3.7-11.6,2.9-17.6c-2.2-17.8-4.4-35.6-7.1-53.5
	C261.7,37.6,260.5,40.5,259.3,43.7z"/>
<path class="st0" d="M428,86.2c0-11.6,0-22.8,0-34.9c-4.6,5.2-8.6,9.8-12.7,14.3c-5.7,6.4-11,13.2-17.2,19
	c-6.6,6.1-6.9,15.1-0.7,21.8c-7.5,0-14.9,0-23.3,0c5.7-3.4,5.6-8.2,5.6-13.1c-0.1-20.5,0-40.9-0.1-61.4c0-4.3-0.4-8.5-4.9-11.5
	c7.9,0,15.3,0,23.5,0c-5.5,3.6-5.7,8.7-5.7,14.1c0.1,11.5,0.1,23,0.1,34.5c0,0.6,0,1.3,0,2.7c5.2-5.8,9.8-11.1,14.5-16.3
	c5.6-6.3,11.3-12.6,17-18.8c5.2-5.7,5.1-10.6-0.9-16.2c7.7,0,15.1,0,23.2,0c-5.1,3.7-5.6,8.7-5.6,14.1c0.2,15.6,0.1,31.3,0.2,46.9
	c0,2.6,0.3,5.2-1.8,6.2c0.7,2.1,1.5,3.6,1.7,5.3c0.5,4.8,0.5,9.7,5,13.5c-7.9,0-15.2,0-22.8,0c0.7-0.7,1.2-1.4,1.8-1.9
	c2.1-1.9,3.1-4.2,3-7.1C427.9,93.7,427.9,90.1,428,86.2z"/>
<path class="st0" d="M7.1,108c-0.2-0.3-0.2-0.8,0-0.9c4.3-2.8,5.2-6.9,5.2-11.8c-0.1-20.3,0.2-40.5,0.1-60.8c0-4.5-0.4-9.1-4.8-12.6
	c1.1-0.1,1.8-0.2,2.5-0.2c10.2-0.2,20.4-0.5,30.7-0.5c6.8,0,13.2,1.5,18.8,5.8C66.8,33,70.1,43.6,67,52.4c-1.6,4.8-3.6,6.6-10.7,9.9
	c1.8,0.9,3.4,1.7,4.9,2.6c10.1,5.7,14.4,15.4,11.4,26.4c-2.3,8.3-8.5,12.2-16.2,14.1c-4.5,1.1-9.3,1.7-14,1.9
	C30.7,107.8,19,107.9,7.1,108 M56.6,74.9c-5.1-7.2-21.2-12.5-31-10.1c0,9.7,0,19.4,0,29.1c0,1.6,0.5,3.3,0.8,4.9
	c0.2,1.5,1,2.1,2.6,2.1c4.1-0.1,8.3,0,12.4-0.2C55,100.1,62.4,87.8,56.6,74.9 M45.7,33.1c-6.4-3.3-13.1-3.8-20-1.8
	c0,9.6,0,18.9,0,28.2c3.7,0,7.2,0.1,10.8,0c1.6,0,3.1-0.3,4.7-0.5c6.9-1.1,11.5-5.5,12.6-12.5C54.7,40.9,52.2,36.6,45.7,33.1z"/>
<path class="st0" d="M362.5,79.1c0.1,5.6,0.2,10.9,0.3,16.2c0.1,4.1,0.9,8,4.9,11.1c-8,0-15.4,0-23.6,0c5.9-3.4,5.4-8.5,5.4-13.5
	c0-18.5,0-37,0-55.4c0-7-2.8-9.8-9.8-9.9c-6.1-0.1-12.2,0-18.3,0.1c-5.2,0.1-7.3,2.4-7.3,7.5c0.2,20.6,0.4,41.3,0.5,61.9
	c0,3.7,1.6,6.6,4.5,9.3c-7.7,0-14.9,0-22.2,0c0-0.1-0.2-0.4-0.1-0.4c3.9-3.1,4.4-7.3,4.4-11.9c-0.1-20.8-0.1-41.7-0.1-62.5
	c0-4.3-0.8-8.3-5-11.3c24.1,0,47.6,0,71.6,0c-0.7,0.7-1.2,1.3-1.8,1.9c-2.3,2.3-3.5,4.9-3.5,8.2c0,5.5,0,11,0.1,16.5
	c0.1,2.8,0.4,5.6-1.7,6.7c0.6,2.1,1.5,3.7,1.5,5.3C362.6,65.4,362.5,72.1,362.5,79.1z"/>
<path class="st0" d="M83.3,106.9c-3.1,0-5.9,0-8.7,0c7.6-5.4,10-13.7,13-21.6c6.6-17,13.5-33.9,20.2-50.9c0.9-2.3,1.9-4.6,2.4-6.9
	c0.4-2.1,0-4.4,0-7.1c5.3,0,11.4,0,17.9,0c1.8,4.6,3.9,9.8,5.9,15c6.8,17.3,13.7,34.7,20.5,52c2.7,7,5.6,13.8,12.5,18.7
	c-8.7,0-16.7,0-25.1,0c0.8-0.7,1.7-1.2,2.1-2c0.7-1.3,1.7-3,1.4-4.1c-3.1-8.7-6.4-17.3-9.8-25.9c-0.2-0.5-1.4-0.9-2.1-0.9
	c-9.4,0-18.9,0-28.3,0.2c-0.9,0-2.3,1-2.6,1.9C99.9,82.5,97.4,89.7,95,97c-1.1,3.5-1,7,2.6,10C92.6,106.9,88.1,106.9,83.3,106.9
	 M116.9,37.4c-3.6,9.2-7.1,18.3-10.6,27.3c8.8,0,17.4,0,26.2,0c-4.5-11.2-8.8-21.8-13.4-33C118.2,33.8,117.6,35.4,116.9,37.4z"/>
<path class="st0" d="M503.6,24.1c9.1,5.3,12.8,13.4,11.5,23.2c-1.4,10.3-8.5,16-17.8,19.2c-6,2.1-12.1,1.9-17.5-0.4
	c4.4-2,9.2-3.7,13.5-6.3c6.8-4.1,9.6-14.7,6.2-21.4c-2.1-4.1-5.6-6.4-9.9-7.9c-5.5-1.9-10.9-1.9-16.7-0.3c0,5,0,9.9,0,14.8
	c0,14.7,0,29.3,0,44c0,8.9,0.6,10.5,5.6,17.5c-8.3,0-16.4,0-25.1,0c6.2-3.3,6.2-8.6,6.2-14.2c-0.1-19.5,0.1-38.9,0-58.4
	c0-4.7,0-9.5-4.4-12.9c0.1-0.3,0.2-0.6,0.2-0.9c13.6,0.3,27.1,0.6,40.7,1.2C498.5,21.4,500.9,23,503.6,24.1z"/>
<path class="st0" d="M523.1,67.3c0-11.3-0.2-22.3,0-33.3c0.1-5.5-0.5-10.4-6.5-13.6c8.9,0,16.9,0,25.9,0c-6.7,6.4-6.2,14.1-6.2,21.6
	c0,17.7,0.1,35.4,0.1,53.1c0,0.6,0.1,1.2,0.2,1.8c7.8,2,15.1,1.4,21.8-3.1c8.1-5.5,8-18.7-0.1-25.4c-4.5-3.7-9.7-6.1-15.7-7.4
	c2.6-0.6,5.1-1.3,7.7-1.6c10.2-1.4,22.5,5.3,26.8,14.6c5.9,12.9-2.2,29-16.6,31.6c-7.7,1.4-15.8,1-23.8,1.2
	c-5.9,0.2-11.8,0-17.8-0.3c4.3-4.3,4.3-9.6,4.3-14.9C523.2,83.5,523.1,75.5,523.1,67.3z"/>
<path class="st0" d="M601.7,20.1c0.8,0,1.4,0,3,0c-6.3,4.2-6.2,9.8-6.1,15.4c0.1,14.8,0.2,29.7,0.3,44.5c0,3,0.7,6.2-1.7,7.6
	c0.7,1.9,1.6,3.4,1.6,4.8c0.3,5,0.4,10,5.2,14c-8,0-15.3,0-23.4,0c6.3-4.2,5.4-10.1,5.4-15.8c0-19.5,0-39.1-0.1-58.6
	c0-4.4-0.5-8.7-5.3-11.9C588.1,20.1,594.8,20.1,601.7,20.1z"/>
<path class="st0" d="M37.3,121.5c30.8,0,61.3,0,91.7,0c0.1,0.3,0.1,0.6,0.2,0.9c-1.8,0.4-3.6,0.9-5.4,1.1c-2.5,0.2-5.2-1.5-7.2,1.4
	c-0.2,0.3-1.1,0.1-1.7,0.1c-38,0-75.9,0-113.9,0c-0.3,0-0.5-0.1-1-0.2c1.1-2.1,2.1-3.4,4.8-3.4C15.5,121.6,26.3,121.5,37.3,121.5z"
	/>
<path class="st0" d="M121.6,141c5,3.8,4.9,8.5-0.4,15c2.2-0.2,4-0.3,6.3-0.5c0.2,0.7,0.6,1.7,1,2.9c-1.7-0.2-3-0.6-4.3-0.6
	c-4.7-0.2-4.8,0.6-4.6,5.2c0.3,7.6,1.1,15.4-2.1,23c-0.4-2.6-1.2-5.2-1.2-7.8c0-5.7,0.3-11.3,0.5-17c0.1-2-0.8-3.3-2.8-3.3
	c-2-0.1-4,0.2-6.3,0.3c0.3-0.9,0.6-1.9,0.9-2.6c2.2,0.2,4,0.3,6.5,0.5c-4.3-4.3-6.2-8.6-2.6-13.6C114.4,140.1,117.6,139.6,121.6,141
	 M123.3,146.5c-1.1-2.7-3.2-4.3-6-3.5c-1.7,0.5-3.5,2.2-4.2,3.8c-1.2,2.6,0.5,5.5,3.9,7.8c-0.2-1.6-0.4-2.8-0.6-4.3
	c0.4-0.4,1-0.9,1.8-1.6c0.7,0.6,1.4,1.2,1.8,1.6c-0.2,1.5-0.3,2.8-0.6,4.7C122.4,152.6,123.8,150.3,123.3,146.5z"/>
<path class="st0" d="M166.9,167.6c-2-3.4-3.8-6.6-6.1-10.6c0,4,0,7.2,0,10.6c-1.1,0-1.8,0-2.6,0c0-5.9,0-11.8,0-17.6
	c2.7-0.6,4.5-0.1,5.6,2.6c1.3,3.1,3.1,5.9,4.8,9.2c1.6-3.1,3.2-6,4.5-9c1-2.5,2.4-3.6,5.3-2.7c0,5.7,0,11.6,0,17.6
	c-1.1,0-2.2,0-3.6,0c0-3.1,0-6.3,0-9.5c-0.2-0.1-0.4-0.1-0.6-0.2c-1.6,2.7-3.2,5.4-4.9,8.1C168.9,166.8,167.9,167.2,166.9,167.6z"/>
<path class="st0" d="M508,150.5c-1.2,1.9-2.3,3.6-3.6,5.5c2-0.1,3.9-0.3,6.1-0.4c0.3,0.7,0.6,1.8,1,2.9c-1.5-0.3-2.6-0.6-3.7-0.7
	c-5.2-0.3-5.3,0.4-5.2,5.5c0.1,7.2-0.6,14.5-1,21.7c0,0.3-0.2,0.6-1,1c-0.4-2.8-1.2-5.6-1.3-8.4c0-5.5,0.3-10.9,0.6-16.4
	c0.1-2.1-1-3.2-2.9-3.3c-2-0.1-4,0.2-6.4,0.4c0.3-0.9,0.7-2,1-2.7c2.2,0.2,4,0.3,6.5,0.5c-1.1-1.3-1.9-2.1-2.6-3
	c-2.3-3-2.3-8,0.1-10.7c2.1-2.4,6.1-3.1,9.1-1.4C507.7,142.7,508.8,145.8,508,150.5 M502.3,152.1c0.1,0.8,0.1,1.6,0.2,2.5
	c3.4-2.8,4.6-5.6,3.6-8.3c-1-2.5-2.8-3.7-5.5-3.5c-2.6,0.2-4.2,1.7-4.8,4.1c-0.7,2.9,0.9,5.8,4.2,7.6c-0.3-1.5-0.5-2.7-0.7-4.2
	c0.5-0.4,1.1-1,2.3-2.2C502,149.7,502.2,150.7,502.3,152.1z"/>
<path class="st0" d="M299.3,151.4c-1.5,5.2-1.9,5.7-6,7.9c2,2.9,4,5.7,6.1,8.6c-4.5,0.8-4.5,0.8-6.5-2.8c-1-1.8-2-3.6-3.4-6.1
	c0,3.5,0,6.3,0,9.2c-1.7,0-3.2,0-4.8,0c0-5.8,0-11.6,0-17.6c1.3,0,2.8,0,4.5,0c0,2.3,0,4.6,0,7.4c3.9-1.5,5.8-3.9,6.2-7.9
	C296.8,150.4,298.1,150.8,299.3,151.4z"/>
<path class="st0" d="M366.7,161.1c0-3.8,0-7.3,0-11.5c3.5,0.2,7,0.1,10.2,0.7c3.3,0.6,4.9,3,4.7,5.8c-0.2,3.1-2,5.2-5.3,5.8
	c-1.4,0.3-2.8,0.2-4.4-0.2c3.4-1.4,6-3.1,4.7-7.2c-0.8-2.5-2.8-2.7-5.4-2.5c0,5.4,0,10.7,0,16.1c-1.7,0-2.9,0-4.6,0
	C366.7,165.8,366.7,163.6,366.7,161.1z"/>
<path class="st0" d="M459.9,165.2c0.4,0.9,0.6,1.6,1,2.4c-6.6,0-12.9,0-19.7,0c3-6,5.7-11.9,8.7-17.5c0.9-1.7,2.4-1.2,3.2,0.6
	C455.4,155.4,457.6,160.2,459.9,165.2 M451.5,158c-0.3-0.6-0.6-1.1-1.1-2.1c-1.7,3.6-3.3,6.8-5,10.2c3.5,0,6.5,0,9.9,0
	C454,163.4,452.8,160.9,451.5,158z"/>
<path class="st0" d="M208.6,153.6c0.5-1.1,0.8-2.1,1.4-2.8c0.5-0.6,1.3-1.1,2-1.1c0.5,0,1.4,0.7,1.6,1.2c2.5,5.6,4.9,11.3,7.4,17.2
	c-2.5,0.6-4.2,0.4-5.2-2.2c-1.3-3.2-3.1-6.1-4.9-9.6c-1.8,3.5-3.6,6.7-5.1,10c-0.8,1.7-1.7,2.6-3.8,1.6
	C204.1,163.2,206.3,158.5,208.6,153.6z"/>
<path class="st0" d="M337.8,163.4c-1.2-2.4-2.3-4.5-3.7-7.2c-1.8,3.5-3.6,6.7-5.1,10c-0.8,1.7-1.7,2.6-3.8,1.6
	c2.6-5.7,5.2-11.3,8-16.9c0.3-0.6,1.4-1.1,2.1-1.1c0.6,0,1.5,0.8,1.8,1.4c2.5,5.5,4.8,11.1,7.2,16.7
	C340.6,168.8,340.6,168.8,337.8,163.4z"/>
<path class="st0" d="M407.4,165.3c-0.9,1.9-1.6,3.8-4.3,2.4c2.6-5.6,5.2-11.3,8-16.9c0.3-0.6,1.3-1.1,2-1.1c0.6,0,1.5,0.5,1.7,1.1
	c2.5,5.7,4.9,11.5,7.3,17.3c-2.7,0.9-4.3,0.1-5.4-2.5c-1.3-3.1-2.9-6-4.7-9.5C410.5,159.4,409,162.2,407.4,165.3z"/>
<path class="st0" d="M249.9,165.2c2.1,0.7,4,1.2,6,1.8c-3,2.2-9.4,0.8-11.8-2.5c-2.7-3.7-2-10.2,1.4-12.9c3.1-2.4,8.6-2.7,10.4-0.4
	c-3.9,0.9-8.7,0.3-9.5,5.9C246,160.4,246.8,163.2,249.9,165.2z"/>
</svg>
